<svg xmlns="http://www.w3.org/2000/svg"  viewBox="0 0 100 100" width="400px" height="400px"><path fill="#31c4f3" d="M82,29.35v41.3c0,3.16-1.29,6.02-3.37,8.08C76.58,80.75,73.76,82,70.65,82h-41.3	C23.08,82,18,76.92,18,70.65v-41.3c0-3.11,1.25-5.93,3.27-7.98c2.06-2.08,4.92-3.37,8.08-3.37h41.3C76.92,18,82,23.08,82,29.35z"/><path fill="#31c4f3" d="M33.9,82h-4.55C23.08,82,18,76.92,18,70.65V66.1L33.9,82z"/><polygon fill="#38c3e5" points="49.9,82 33.9,82 18,66.1 18,50.1"/><polygon fill="#3ec2d7" points="65.9,82 49.9,82 18,50.1 18,34.1"/><path fill="#45c1c9" d="M78.63,78.73C76.58,80.75,73.76,82,70.65,82H65.9L18,34.1v-4.75c0-3.11,1.25-5.93,3.27-7.98	L78.63,78.73z"/><path fill="#4cc0bb" d="M82,66.1v4.55c0,3.16-1.29,6.02-3.37,8.08L21.27,21.37c2.06-2.08,4.92-3.37,8.08-3.37h4.55L82,66.1z"/><polygon fill="#53bfad" points="82,50.08 82,66.1 33.9,18 49.92,18"/><polygon fill="#59be9f" points="82,34.08 82,50.08 49.92,18 65.92,18"/><path fill="#60bd91" d="M82,29.35v4.73L65.92,18h4.73C76.92,18,82,23.08,82,29.35z"/><path fill="#1f212b" d="M70.646,83H29.354C22.542,83,17,77.458,17,70.646V29.354C17,22.542,22.542,17,29.354,17h41.291	C77.458,17,83,22.542,83,29.354v41.291C83,77.458,77.458,83,70.646,83z M29.354,19C23.645,19,19,23.645,19,29.354v41.291	C19,76.355,23.645,81,29.354,81h41.291C76.355,81,81,76.355,81,70.646V29.354C81,23.645,76.355,19,70.646,19H29.354z"/><path fill="#1f212b" d="M69.5,78h-39c-4.687,0-8.5-3.813-8.5-8.5v-39c0-4.687,3.813-8.5,8.5-8.5h37	c0.276,0,0.5,0.224,0.5,0.5S67.776,23,67.5,23h-37c-4.136,0-7.5,3.364-7.5,7.5v39c0,4.136,3.364,7.5,7.5,7.5h39	c4.136,0,7.5-3.364,7.5-7.5v-23c0-0.276,0.224-0.5,0.5-0.5s0.5,0.224,0.5,0.5v23C78,74.187,74.187,78,69.5,78z"/><path fill="#1f212b" d="M77.5,45c-0.276,0-0.5-0.224-0.5-0.5v-8c0-0.276,0.224-0.5,0.5-0.5s0.5,0.224,0.5,0.5v8	C78,44.776,77.776,45,77.5,45z"/><path fill="#1f212b" d="M77.5,35c-0.276,0-0.5-0.224-0.5-0.5v-1c0-0.276,0.224-0.5,0.5-0.5s0.5,0.224,0.5,0.5v1	C78,34.776,77.776,35,77.5,35z"/><path fill="#fff" d="M50.5,70.5c-1.75,0-6.175-0.362-9.5-2.5c-3.5-2.25-8.5-5.5-8.5-8c0-3.5,9.156-11.117,11-12.5 C45.5,46,48,47,48,47c0.75-1.25,1-4.75-1-6.5c-1.5,3-5,6-8,6c-2.75,0-4-1.5-4-1.5c4.5,0,3.5-6,11-5.5c-2-3.25-0.25-9.5,5.5-9.5 c6.5,0,6.5,5.75,6,7.5c0.75,1,0.75,0.75,1,1.25c0.5,1.5-0.25,3.5-1,4.25s-2,0.5-2,0.5c-0.5,1.25-1,5-1,5s4,3,4,6s0,9.5,0,9.5l5.5-4 c-0.75-1-0.75-3-0.5-3.5s1.75-2,3-2s1,1.25,1,2s0,2.5,0,3c0,1.25-6.75,7.5-8.5,9S54.25,70.5,50.5,70.5z M44,65.5l-1.5-9l-4.5,3 L44,65.5z"/><path fill="#1f212b" d="M50.5,71c-0.962,0-5.951-0.124-9.771-2.579C36.129,65.463,32,62.594,32,60 c0-4.165,11.088-12.816,11.2-12.9c1.691-1.271,3.666-0.944,4.536-0.709c0.434-1.149,0.544-3.541-0.627-5.048 C45.441,44.171,42.056,47,39,47c-2.95,0-4.327-1.611-4.384-1.68c-0.125-0.149-0.151-0.356-0.069-0.532 C34.63,44.612,34.806,44.5,35,44.5c1.699,0,2.485-0.95,3.481-2.152c1.255-1.516,2.796-3.377,6.671-3.377c0.008,0,0.016,0,0.023,0 c-0.749-1.85-0.591-4.253,0.466-6.144C46.84,30.682,48.921,29.5,51.5,29.5c2.456,0,4.288,0.776,5.442,2.308 c1.353,1.792,1.407,4.218,1.102,5.581c0.259,0.332,0.399,0.473,0.497,0.57c0.156,0.156,0.252,0.26,0.406,0.567 c0.613,1.824-0.264,3.997-1.094,4.827c-0.624,0.625-1.483,0.707-2.01,0.683c-0.354,1.171-0.695,3.452-0.809,4.248 C55.928,49.006,59,51.694,59,54.5v8.519l4.335-3.153c-0.604-1.21-0.574-3.005-0.282-3.589C63.346,55.691,64.985,54,66.5,54 c0.467,0,0.837,0.139,1.1,0.413c0.464,0.482,0.434,1.2,0.409,1.776C68.005,56.299,68,56.404,68,56.5v3 c0,1.769-8.588,9.306-8.675,9.38C57.638,70.326,54.833,71,50.5,71z M46.112,47.177c-0.72,0-1.562,0.161-2.312,0.724 C41.418,49.687,33,56.958,33,60c0,2.263,5.177,5.591,8.271,7.579C44.93,69.932,49.94,70,50.5,70c4.081,0,6.679-0.598,8.175-1.88 c2.772-2.376,8.194-7.655,8.326-8.632L67,56.5c0-0.109,0.005-0.228,0.01-0.352c0.016-0.366,0.036-0.868-0.132-1.043 C66.812,55.035,66.684,55,66.5,55c-0.989,0-2.345,1.307-2.553,1.724c-0.169,0.339-0.175,2.14,0.453,2.977 c0.08,0.106,0.114,0.242,0.094,0.374c-0.02,0.133-0.092,0.251-0.2,0.33l-5.5,4c-0.151,0.11-0.353,0.129-0.521,0.041 C58.105,64.36,58,64.188,58,64v-9.5c0-2.713-3.762-5.571-3.8-5.601c-0.145-0.108-0.22-0.286-0.196-0.466 c0.021-0.155,0.515-3.826,1.032-5.119c0.09-0.224,0.329-0.352,0.562-0.305c0.011,0.003,1.003,0.183,1.549-0.363 c0.635-0.635,1.309-2.449,0.879-3.738c-0.062-0.112-0.084-0.135-0.191-0.242c-0.135-0.135-0.338-0.338-0.734-0.866 c-0.094-0.125-0.123-0.287-0.08-0.438c0.304-1.063,0.335-3.349-0.875-4.952c-0.956-1.268-2.519-1.91-4.645-1.91 c-2.201,0-3.972,1-4.986,2.815c-1.046,1.872-1.082,4.308-0.088,5.923c0.098,0.159,0.099,0.359,0.002,0.52s-0.275,0.258-0.461,0.241 c-4.012-0.264-5.391,1.387-6.715,2.986c-0.806,0.973-1.632,1.971-3.004,2.353C36.839,45.669,37.744,46,39,46 c2.806,0,6.171-2.96,7.553-5.724c0.069-0.139,0.199-0.237,0.351-0.267c0.152-0.031,0.31,0.012,0.426,0.114 c2.188,1.914,1.956,5.706,1.1,7.133c-0.126,0.209-0.388,0.297-0.613,0.208C47.803,47.46,47.066,47.177,46.112,47.177z M44,66 c-0.13,0-0.258-0.051-0.354-0.146l-6-6c-0.106-0.105-0.159-0.254-0.145-0.402c0.016-0.149,0.096-0.284,0.221-0.367l4.5-3 c0.14-0.095,0.317-0.111,0.477-0.043c0.155,0.067,0.266,0.209,0.294,0.377l1.5,9c0.036,0.214-0.071,0.427-0.265,0.526 C44.156,65.981,44.078,66,44,66z M38.785,59.578l4.465,4.465l-1.116-6.698L38.785,59.578z"/></svg>